<?xml version="1.0" encoding="UTF-8"?>
<svg id="b" data-name="Trumpet-Flat--Streamline-Fluent-Emoji.svg" xmlns="http://www.w3.org/2000/svg" width="128" height="128" viewBox="0 0 128 128">
  <g>
    <path d="M20.333,124.5c-2.67,0-5.182-1.04-7.07-2.928l-6.834-6.834c-3.898-3.899-3.898-10.243,0-14.142,1.886-1.886,4.394-2.925,7.062-2.925.812,0,1.62.1,2.403.293l16.65-16.65c-1.411-1.765-2.177-3.939-2.177-6.231,0-2.671,1.041-5.183,2.93-7.071,1.89-1.888,4.4-2.928,7.07-2.928,1.655,0,3.249.399,4.671,1.152-.753-1.422-1.152-3.016-1.152-4.671,0-2.671,1.04-5.183,2.93-7.071,1.887-1.888,4.398-2.929,7.07-2.929,1.654,0,3.249.399,4.671,1.152-.753-1.422-1.152-3.016-1.152-4.67,0-2.672,1.04-5.183,2.929-7.071,1.889-1.89,4.399-2.93,7.071-2.93,2.364,0,4.604.815,6.397,2.313l6.195-6.195c5.285-5.285,7.549-12.813,6.056-20.138l-.465-2.278c-.415-2.036.088-4.11,1.378-5.69,1.309-1.602,3.32-2.559,5.38-2.559,1.805,0,3.517.719,4.822,2.024l25.308,25.309c2.001,2,2.574,4.86,1.495,7.465-1.071,2.587-3.545,4.259-6.301,4.259h0c-.471,0-.947-.049-1.418-.145l-2.278-.465c-1.458-.298-2.951-.448-4.437-.448-5.931,0-11.507,2.31-15.701,6.504l-6.166,6.167,3.853,3.853c-.847-4.725,1.824-9.52,6.491-11.181,1.084-.386,2.211-.58,3.352-.58,4.221,0,8.008,2.671,9.423,6.647,2.6,7.307,1.576,15.39-2.61,21.794,1.627,1.83,2.517,4.163,2.517,6.633,0,2.671-1.041,5.183-2.93,7.071-1.887,1.888-4.398,2.929-7.07,2.929-1.655,0-3.249-.399-4.672-1.153.754,1.423,1.153,3.017,1.153,4.672,0,2.671-1.04,5.183-2.93,7.071-1.887,1.888-4.398,2.929-7.07,2.929-1.655,0-3.249-.399-4.672-1.153.754,1.423,1.153,3.017,1.153,4.672,0,2.671-1.04,5.183-2.93,7.071-1.887,1.888-4.398,2.929-7.07,2.929-2.475,0-4.812-.893-6.644-2.526-3.996,2.62-8.687,4.037-13.502,4.038-6.595,0-12.789-2.562-17.441-7.213-1.118-1.119-2.116-2.325-2.989-3.61l-3.044,3.044c.823,3.334-.114,6.948-2.633,9.466-1.888,1.889-4.399,2.929-7.07,2.929Z" fill="#fc0" stroke-width="0"/>
    <path d="M92.346,7c.816,0,1.652.304,2.346.999l25.309,25.309c2.18,2.18.515,5.749-2.331,5.749-.232,0-.473-.024-.719-.074l-2.279-.465c-1.708-.348-3.427-.519-5.136-.519-6.747,0-13.307,2.66-18.175,7.529l-8.581,8.581c-.015.026-.03.051-.045.077l11.565,11.565c1.429-2.126,1.819-4.847.943-7.308-1.203-3.383.562-7.1,3.944-8.304.72-.256,1.455-.377,2.178-.377,2.673,0,5.178,1.659,6.126,4.321,2.552,7.172,1.003,15.222-3.921,20.937l1.72,1.72c2.539,2.538,2.539,6.653,0,9.191-1.269,1.27-2.933,1.904-4.596,1.904s-3.327-.635-4.596-1.904l-1.679-1.679-4.327,4.327,1.679,1.679c2.539,2.538,2.539,6.653,0,9.191-1.269,1.27-2.933,1.904-4.596,1.904s-3.327-.635-4.596-1.904l-1.679-1.679-4.327,4.327,1.679,1.679c2.539,2.538,2.539,6.653,0,9.191-1.269,1.27-2.933,1.904-4.596,1.904s-3.327-.635-4.596-1.904l-1.734-1.734c-3.958,3.42-8.883,5.149-13.817,5.15-5.421,0-10.839-2.062-14.966-6.188-2.015-2.016-3.571-4.367-4.621-6.927l-7.972,7.972c1.444,2.488,1.109,5.724-1.022,7.855-1.269,1.269-2.933,1.903-4.596,1.903s-3.327-.635-4.597-1.903l-6.833-6.833c-2.538-2.539-2.538-6.654,0-9.192,1.267-1.267,2.927-1.9,4.586-1.9,1.13,0,2.261.293,3.268.878l20.691-20.691-1.679-1.679c-2.538-2.538-2.538-6.654,0-9.192,1.27-1.269,2.933-1.903,4.596-1.903,1.664,0,3.327.635,4.596,1.904l1.677,1.678,4.326-4.326-1.678-1.678c-2.539-2.539-2.539-6.654,0-9.192,1.269-1.27,2.932-1.904,4.595-1.904s3.327.635,4.597,1.904l1.678,1.678,4.326-4.326-1.678-1.678c-2.539-2.538-2.539-6.654,0-9.192,1.27-1.27,2.933-1.904,4.596-1.904,1.663,0,3.327.635,4.596,1.903l1.816,1.816c.024-.015.049-.029.073-.043l8.583-8.583c6.101-6.101,8.734-14.857,7.01-23.311l-.465-2.279c-.47-2.305,1.374-4.05,3.328-4.05M80.9,79.388l4.327-4.327-11.547-11.547-4.327,4.327,11.547,11.547M67.381,92.906l4.327-4.327-11.547-11.547-4.327,4.327,11.547,11.547M53.505,103.388c1.6,0,3.2-.466,4.577-1.398l-11.335-11.335c-.91,1.34-1.402,2.919-1.402,4.574,0,2.181.85,4.231,2.392,5.773,1.591,1.591,3.679,2.385,5.769,2.385M92.346,0s0,0,0,0c-3.1,0-6.125,1.437-8.091,3.845-1.958,2.398-2.722,5.533-2.096,8.603l.465,2.279c1.258,6.169-.649,12.511-5.101,16.963l-4.211,4.211c-1.817-.886-3.826-1.353-5.907-1.354-3.606,0-6.996,1.404-9.547,3.954-2.55,2.55-3.954,5.94-3.954,9.546v.018c-.006,0-.013,0-.019,0-3.607,0-6.998,1.405-9.547,3.956-2.548,2.547-3.953,5.937-3.953,9.544v.019h-.018c-3.604,0-6.994,1.403-9.544,3.951-2.552,2.551-3.956,5.941-3.957,9.547,0,2.003.433,3.94,1.255,5.703l-13.439,13.439c-.396-.035-.794-.053-1.194-.053-3.603,0-6.989,1.403-9.536,3.95-5.263,5.263-5.263,13.827,0,19.091l6.834,6.834c2.552,2.55,5.942,3.954,9.546,3.954s6.996-1.404,9.545-3.954c2.385-2.385,3.72-5.498,3.921-8.697,5.291,5.184,12.278,8.035,19.71,8.035,4.677,0,9.249-1.17,13.319-3.359,2.048,1.205,4.388,1.847,6.828,1.847,3.607,0,6.998-1.405,9.547-3.956,2.548-2.547,3.953-5.937,3.953-9.544v-.019h.019c3.607,0,6.998-1.405,9.547-3.956,2.548-2.547,3.953-5.937,3.953-9.544v-.019h.019c3.607,0,6.998-1.405,9.547-3.956,2.548-2.547,3.953-5.937,3.953-9.544,0-2.435-.64-4.771-1.841-6.817,3.715-6.931,4.423-15.222,1.733-22.783-1.002-2.814-2.883-5.144-5.268-6.724.239-.009.478-.013.718-.013,1.251,0,2.508.127,3.737.378l2.279.465c.701.143,1.413.215,2.118.215,4.177,0,7.92-2.519,9.535-6.419,1.606-3.877.721-8.305-2.254-11.28L99.642,3.049C97.676,1.083,95.085,0,92.346,0h0Z" fill="#000" stroke-width="0"/>
  </g>
  <g>
    <line x1="40.367" y1="75.084" x2="46.182" y2="80.899" fill="#fff" stroke="#d9dbdd" stroke-linecap="round" stroke-linejoin="round" stroke-width="13"/>
    <line x1="53.886" y1="61.565" x2="59.7" y2="67.38" fill="#fff" stroke="#d9dbdd" stroke-linecap="round" stroke-linejoin="round" stroke-width="13"/>
    <line x1="67.404" y1="48.047" x2="73.219" y2="53.862" fill="#fff" stroke="#d9dbdd" stroke-linecap="round" stroke-linejoin="round" stroke-width="13"/>
    <line x1="50.582" y1="85.299" x2="73.656" y2="108.373" fill="none" stroke="#eda400" stroke-linecap="round" stroke-miterlimit="10" stroke-width="13"/>
    <line x1="64.1" y1="71.78" x2="87.175" y2="94.855" fill="none" stroke="#eda400" stroke-linecap="round" stroke-miterlimit="10" stroke-width="13"/>
    <line x1="77.619" y1="58.261" x2="100.694" y2="81.336" fill="none" stroke="#eda400" stroke-linecap="round" stroke-miterlimit="10" stroke-width="13"/>
    <path d="M101.366,56.262c1.839,5.168.69,11.161-3.446,15.297l-34.04,34.04c-5.727,5.727-15.012,5.727-20.739,0h0c-5.727-5.727-5.727-15.012,0-20.739l34.04-34.04" fill="none" stroke="#fc0" stroke-linecap="round" stroke-miterlimit="10" stroke-width="13"/>
    <line x1="46.513" y1="81.487" x2="16.917" y2="111.083" fill="none" stroke="#fc0" stroke-linecap="round" stroke-miterlimit="10" stroke-width="13"/>
    <line x1="20.333" y1="114.5" x2="13.5" y2="107.667" fill="#fff" stroke="#d9dbdd" stroke-linecap="round" stroke-linejoin="round" stroke-width="13"/>
    <path d="M120.001,33.307c2.358,2.358.217,6.341-3.051,5.675l-2.279-.465c-8.454-1.724-17.21.909-23.311,7.01l-18.099,18.099-4.444-4.444-4.444-4.444,18.099-18.099c6.101-6.101,8.734-14.857,7.01-23.311l-.465-2.279c-.666-3.268,3.317-5.409,5.675-3.051l25.309,25.309Z" fill="#fc0" stroke-width="0"/>
  </g>
</svg>